<?xml version="1.0" standalone="no"?> 
<!DOCTYPE svg PUBLIC "-//W3C//DTD SVG 1.1//EN" "http://www.w3.org/Graphics/SVG/1.1/DTD/svg11.dtd" >
<svg xmlns="http://www.w3.org/2000/svg">
<defs>
  <font id="icons" horiz-adv-x="9555.6">
    <font-face font-family="icons"
      units-per-em="1001" ascent="1001"
      descent="0" />
    <missing-glyph horiz-adv-x="0" />
    <glyph glyph-name="basket"
      unicode="&#xE001;"
      horiz-adv-x="1048.6475999999998" d=" M291.0908 716.716L359.5592000000001 376.3760000000001C362.362 362.5622000000001 369.7694 350.1498000000001 380.7804 341.3410000000001C391.7914 332.5322000000001 406.2058 327.1268 419.8194 328.1278H857.8569999999999C872.4716 326.9266 886.4856 332.5322 897.4966 341.3410000000001S916.1152 362.5622000000001 918.7178 376.3760000000001L983.983 716.716H291.0908zM343.7434 295.0948000000001C321.9216 312.7124 306.9065999999999 337.3370000000001 301.301 364.7644L226.0258 738.9382C225.8256 739.9392 225.6254 740.9402 225.4252 741.9412L185.3852 940.5396H29.6296C13.4134 940.7398 0 953.953 0 970.3694S13.4134 1000.1992 29.6296 1000.1992H209.6094C223.8236 1000.1992 236.0358 990.1892 238.8386 976.3754L279.0788 776.1754000000001H1019.8187999999998C1028.6275999999998 776.1754000000001 1037.0359999999998 772.1714000000001 1042.8418 765.3646S1050.8497999999997 749.5488 1049.0479999999998 740.9402L976.9759999999998 365.1648C971.3704 337.5372 956.3554 312.7124 934.5335999999998 295.2950000000001C912.7118 277.6774000000001 884.6838 269.2690000000001 857.2563999999999 269.0688H420.42C419.6191999999999 269.0688 419.0186 269.0688 418.2178 269.0688C391.391 268.6684 364.9646 278.0778 343.7434 295.0948000000001zM389.7894 89.4894000000001C381.381 89.4894000000001 374.5742 82.6826000000001 374.5742 74.4744000000001C374.5742 66.0660000000002 381.381 59.4594000000001 389.7894 59.4594000000001C398.1977999999999 59.4594000000001 405.0046 66.2662 405.0046 74.4744000000001C405.0046 82.8828000000001 398.1978 89.4894000000001 389.7894 89.4894000000001zM389.7894 1e-13C348.5482 1e-13 315.1148 33.4334000000001 315.1148 74.4744000000001C315.1148 115.5154000000001 348.7484 148.9488 389.7894 148.9488S464.4639999999999 115.5154000000001 464.4639999999999 74.4744000000001C464.4639999999999 33.4334000000001 431.0306 1e-13 389.7894 1e-13zM884.8839999999999 89.4894000000001C876.4755999999999 89.4894000000001 869.6687999999998 82.6826000000001 869.6687999999998 74.4744000000001C869.6687999999998 66.0660000000002 876.4755999999998 59.4594000000001 884.8839999999999 59.4594000000001C893.2923999999999 59.4594000000001 900.0992 66.2662 900.0992 74.4744000000001C900.2993999999999 82.8828000000001 893.2923999999999 89.4894000000001 884.8839999999999 89.4894000000001zM884.8839999999999 1e-13C843.6427999999999 1e-13 810.2093999999998 33.4334000000001 810.2093999999998 74.4744000000001C810.2093999999998 115.5154000000001 843.843 148.9488 884.8839999999999 148.9488C926.1252 148.9488 959.5586 115.5154000000001 959.5586 74.4744000000001C959.5586 33.4334000000001 926.1252 1e-13 884.8839999999999 1e-13z" />
    <glyph glyph-name="facebook"
      unicode="&#xE002;"
      horiz-adv-x="1000.9999999999999" d=" M1000.9999999999998 497.4970000000001C1000.9999999999998 775.5748000000001 776.776 1001 500.4999999999999 1001C224.0238 1001 0 775.5748000000001 0 497.4970000000001C0 246.0458 182.9828 37.8378 422.2218 1e-13V351.7514000000001H295.0948V497.2968H422.2218V608.4078C422.2218 734.5337999999999 496.8963999999999 804.2034 611.2106 804.2034C666.0654 804.2034 723.3226 794.3936 723.3226 794.3936V670.4698H660.0593999999999C597.9973999999999 670.4698 578.578 631.631 578.578 591.7912V497.2968H717.3166L695.0944 351.7514000000001H578.578V1e-13C817.8169999999999 37.8378 1000.9999999999998 246.0458 1000.9999999999998 497.4970000000001z" />
    <glyph glyph-name="heart-full"
      unicode="&#xE003;"
      horiz-adv-x="1167.8333333333335" d=" M728.5055555555556 189.0777777777778C650.65 116.7833333333333 606.161111111111 77.8555555555554 583.9166666666667 66.7333333333332C561.6722222222222 77.8555555555554 500.5 133.4666666666666 411.5222222222223 211.3222222222221C394.838888888889 228.0055555555555 372.5944444444445 244.6888888888888 350.3500000000001 266.9333333333333C333.6666666666668 278.0555555555555 322.5444444444445 289.1777777777777 305.8611111111112 305.861111111111C183.5166666666667 411.5222222222222 72.2944444444445 506.061111111111 72.2944444444445 650.6499999999999C72.2944444444445 800.8 189.0777777777779 928.7055555555556 328.1055555555556 928.7055555555556C428.2055555555556 928.7055555555556 483.8166666666667 878.6555555555555 522.7444444444445 823.0444444444444C550.5500000000001 789.6777777777777 561.6722222222222 761.8722222222221 572.7944444444445 745.1888888888888C578.3555555555556 734.0666666666666 583.9166666666667 728.5055555555555 583.9166666666667 728.5055555555555S589.4777777777778 734.0666666666666 595.0388888888889 745.1888888888888C606.161111111111 761.8722222222221 617.2833333333333 784.1166666666666 645.088888888889 823.0444444444444C684.0166666666667 878.6555555555555 739.6277777777777 928.7055555555556 845.2888888888889 928.7055555555556C984.3166666666668 928.7055555555556 1101.1 806.361111111111 1101.1 650.6499999999999C1101.1 506.061111111111 989.8777777777776 411.5222222222222 867.5333333333333 311.4222222222221C850.8499999999999 300.2999999999999 834.1666666666666 283.6166666666666 817.4833333333332 266.9333333333332C784.1166666666667 239.1277777777778 750.75 216.8833333333333 728.5055555555556 189.0777777777778z" />
    <glyph glyph-name="heart"
      unicode="&#xE004;"
      horiz-adv-x="1167.7665999999997" d=" M583.9834 866.6658C649.6489999999999 957.7568 732.3316 1001 841.8409999999999 1001C1021.8207999999998 1001 1167.7665999999997 845.0442 1167.7665999999997 652.8522C1167.7665999999997 475.2748 1038.8377999999998 364.7644 909.9089999999998 259.2590000000002C898.2973999999998 251.0508 887.8869999999998 241.8416000000001 877.0761999999999 232.2320000000001C871.8709999999998 227.6274000000001 866.6657999999999 223.0228000000001 861.2603999999999 218.4182000000002L812.6117999999999 175.1750000000001C690.8901999999998 64.6646000000002 647.2465999999998 26.4264000000001 622.8221999999998 12.0120000000001C610.6099999999998 4.8048000000001 598.3977999999998 1e-13 583.9834 1e-13C571.7711999999999 1e-13 557.1565999999999 4.8048000000001 545.1446 12.0120000000001C524.1236 24.4244000000001 481.4809999999999 61.8618 401.8014 131.7316000000001C388.9886 142.9428000000002 375.1748 155.1550000000001 360.36 167.9678000000001L304.3040000000001 216.0158000000001C289.6894 230.4302000000002 272.6724 244.8446000000002 258.0578000000001 256.8566000000001C131.3312 364.9646000000002 0 477.6772000000001 0 652.8522C0 845.0442 145.9458 1001 325.9256 998.5976C435.435 998.5976 518.3177999999999 955.3544 583.9834 866.6658zM1094.8937999999998 652.8522C1094.8937999999998 804.2034 980.5796 928.928 841.8409999999999 928.928C739.7389999999999 928.928 683.6829999999999 880.88 644.8442 825.6248C618.6179999999999 790.1894 605.0044 764.9642 596.5959999999999 749.5488C590.1895999999999 737.9372000000001 587.1866 731.9312 583.9834 731.9312C580.7801999999999 731.9312 577.5769999999999 737.7370000000001 571.3707999999999 749.5488C563.1625999999999 764.9642 549.3487999999999 790.1894 523.1225999999998 825.6248C484.0836 880.88 428.2278 928.928 325.9256 928.928C187.3872 928.928 73.073 804.2034 73.073 652.8522C73.073 506.7062 186.186 410.6102000000001 309.5092 305.9056C323.9235999999999 293.6934 338.338 281.281 352.9525999999999 268.8686C374.1737999999999 250.0498 394.5942 232.0318000000001 413.6132 215.0148C499.499 138.7386 562.1615999999999 83.2832000000001 583.9834 69.4694000000001C602.4017999999999 80.4804 647.4467999999999 120.3202 727.5267999999999 191.3912C753.1524 214.0138000000001 782.1813999999999 239.8396 815.0141999999998 268.8686C831.4305999999998 283.283 848.0471999999999 297.4972 864.4635999999998 311.5112000000001C983.7827999999998 414.2138 1094.8937999999998 509.3088000000001 1094.8937999999998 652.8522z" />
    <glyph glyph-name="instagram"
      unicode="&#xE005;"
      horiz-adv-x="1000.9999999999999" d=" M724.7239999999999 1e-13H276.276C123.9238 1e-13 0 123.9238 0 276.2760000000001V724.724C0 877.0762 123.9238 1001 276.276 1001H724.7239999999999C877.0762 1001 1000.9999999999998 877.0762 1000.9999999999998 724.724V276.2760000000001C1000.9999999999998 123.9238 877.0762 1e-13 724.7239999999999 1e-13zM912.1112 276.2760000000001V724.724C912.1112 828.0272 828.0272 912.1112 724.7239999999999 912.1112H276.276C172.9728 912.1112 88.8888 828.0272 88.8888 724.724V276.2760000000001C88.8888 172.9728 172.9728 88.8888000000001 276.276 88.8888000000001H724.7239999999999C828.0272 88.8888000000001 912.1112 172.9728 912.1112 276.2760000000001zM769.1683999999999 703.5028C752.1513999999999 703.5028 735.3345999999999 710.5098 723.1223999999999 722.5218C710.9101999999998 734.734 703.9031999999999 751.5508 703.9031999999999 768.5678S710.9101999999998 802.6018 723.1223999999999 814.6138000000001C735.1343999999999 826.826 751.9511999999999 833.6328000000001 769.1683999999999 833.6328000000001C786.3856 833.6328000000001 803.2023999999999 826.6258 815.2143999999998 814.6138000000001C827.4265999999999 802.6018 834.2333999999998 785.7850000000001 834.2333999999998 768.5678S827.2263999999999 734.5338 815.2143999999998 722.5218C803.2023999999999 710.5098 786.3856 703.5028 769.1683999999999 703.5028zM500.4999999999999 242.6424000000001C358.358 242.6424000000001 242.6424 358.3580000000001 242.6424 500.5000000000001S358.358 758.3576 500.4999999999999 758.3576S758.3575999999999 642.642 758.3575999999999 500.5000000000001S642.6419999999999 242.6424000000001 500.4999999999999 242.6424000000001zM500.4999999999999 669.6690000000001C407.2068 669.6690000000001 331.331 593.7932000000001 331.331 500.5000000000001C331.331 407.2068000000001 407.2068 331.331 500.4999999999999 331.331S669.669 407.2068000000001 669.669 500.5000000000001C669.669 593.7932000000001 593.7932 669.6690000000001 500.4999999999999 669.6690000000001z" />
    <glyph glyph-name="kontora"
      unicode="&#xE006;"
      horiz-adv-x="6374.768399999999" d=" M899.4985999999998 960.3594L613.4127999999996 960.3594L257.6573999999996 578.578L257.6573999999996 960.3594L0 960.3594L0 41.0410000000001L257.6573999999996 41.0410000000001L257.6573999999996 271.0708000000001L354.9545999999999 374.5742000000002L617.2165999999999 41.0410000000001L919.3183999999997 41.0410000000001L524.1235999999999 553.1526000000001z M1580.7791999999997 917.7168C1503.3017999999995 958.7578 1416.4149999999997 979.3784 1319.1177999999995 979.3784C1221.8205999999998 979.3784 1134.9337999999996 958.7578 1057.4563999999996 917.7168C979.9789999999994 876.6758 919.1181999999995 819.6188 874.8739999999995 746.9462000000001C830.6297999999996 674.2736 808.4075999999993 591.9914000000001 808.4075999999993 501.1006000000001C808.4075999999993 409.4090000000001 830.6297999999991 327.9276000000001 874.8739999999995 255.2550000000001C919.1181999999992 182.5824000000002 979.9789999999994 125.5254000000002 1057.4563999999996 84.4844000000002C1134.9337999999996 43.4434000000002 1221.8205999999993 22.8228000000003 1319.1177999999995 22.8228000000003C1416.4149999999993 22.8228000000003 1503.3017999999995 43.4434000000002 1580.7791999999997 84.4844000000002C1658.2565999999997 125.5254000000002 1719.1173999999996 182.5824000000002 1763.3615999999997 255.2550000000001C1807.6058 327.9276000000001 1829.8279999999995 410.2098 1829.8279999999995 501.1006000000001C1829.8279999999995 592.7922000000001 1807.6058 674.2736 1763.3615999999997 746.9462000000001C1719.1173999999996 819.6188 1658.2565999999997 876.4756 1580.7791999999997 917.7168zM1534.9333999999997 363.5632000000002C1512.7111999999997 324.1238000000002 1483.4819999999997 293.2930000000001 1445.6441999999997 271.0708000000002C1407.6061999999997 248.8486000000003 1365.7643999999996 237.8376000000002 1319.9185999999997 237.8376000000002C1274.0727999999997 237.8376000000002 1232.2309999999998 248.8486000000003 1194.1929999999998 271.0708000000003C1156.155 293.2930000000004 1126.9258 324.1238000000003 1104.9038 363.5632000000003C1082.6816000000003 403.8034000000003 1071.6706000000001 449.6492000000002 1071.6706000000001 501.1006000000002C1071.6706000000001 553.3528000000002 1082.6816000000003 599.1986000000002 1104.9038 638.6380000000001S1156.3552000000002 708.9082000000002 1194.1929999999998 731.1304000000001C1231.4301999999998 753.3526000000002 1273.272 764.3636000000001 1319.9185999999997 764.3636000000001C1365.7644 764.3636000000001 1407.6061999999997 753.3526000000002 1445.6441999999997 731.1304000000001C1483.6821999999997 708.9082000000001 1512.9113999999997 678.0774000000001 1534.9333999999997 638.6380000000001C1557.1555999999998 598.3978000000002 1568.1665999999998 552.5520000000001 1568.1665999999998 501.1006000000002C1568.1665999999998 448.8484000000001 1557.1555999999998 403.0026000000002 1534.9333999999997 363.5632000000002z M2848.6457999999993 960.3594L2508.1055999999994 960.3594L2508.1055999999994 470.2698L2102.5003999999994 960.3594L1888.2863999999995 960.3594L1888.2863999999995 41.0410000000001L2142.7405999999996 41.0410000000001L2142.7405999999996 531.1306000000001L2548.3457999999996 41.0410000000001L2564.1615999999995 41.0410000000001L2859.0561999999995 41.0410000000001L2859.0561999999995 418.8184L2614.0113999999994 418.8184z M3525.3217999999993 960.3594L2859.0561999999995 960.3594L2859.0561999999995 581.7812000000001L3101.6985999999997 582.3818L2871.6687999999995 41.0410000000001L3109.5063999999993 41.0410000000001L3244.641399999999 41.0410000000001L3244.641399999999 753.9532L3525.3217999999993 753.9532z M4235.831599999999 917.7168C4158.3542 958.7578 4071.467399999999 979.3784 3974.170199999999 979.3784C3876.872999999999 979.3784 3789.9861999999994 958.7578 3712.508799999999 917.7168C3635.0313999999994 876.6758 3574.1705999999995 819.6188 3529.9263999999994 746.9462000000001C3485.6821999999993 674.2736 3463.4599999999996 591.9914000000001 3463.4599999999996 501.1006000000001C3463.4599999999996 409.4090000000001 3485.6821999999993 327.9276000000001 3529.9263999999994 255.2550000000001C3574.1705999999995 182.5824000000002 3635.0313999999994 125.5254000000002 3712.508799999999 84.4844000000002C3789.9861999999994 43.4434000000002 3876.872999999999 22.8228000000003 3974.170199999999 22.8228000000003C4071.467399999999 22.8228000000003 4158.3542 43.4434000000002 4235.831599999999 84.4844000000002C4313.308999999999 125.5254000000002 4374.169799999999 182.5824000000002 4418.414 255.2550000000001C4462.658199999999 327.9276000000001 4484.880399999999 410.2098 4484.880399999999 501.1006000000001C4484.880399999999 592.7922000000001 4462.658199999999 674.2736 4418.414 746.9462000000001C4374.1698 819.6188 4313.308999999999 876.4756 4235.831599999999 917.7168zM4189.9857999999995 363.5632000000002C4167.763599999999 324.1238000000002 4138.5344 293.2930000000001 4100.696599999999 271.0708000000002C4062.6585999999993 248.8486000000003 4020.816799999999 237.8376000000002 3974.970999999999 237.8376000000002C3929.125199999999 237.8376000000002 3887.2833999999993 248.8486000000003 3849.2453999999993 271.0708000000003C3811.2073999999993 293.2930000000004 3781.978199999999 324.1238000000003 3759.9562 363.5632000000003C3737.733999999999 403.8034000000003 3726.722999999999 449.6492000000002 3726.722999999999 501.1006000000002C3726.722999999999 553.3528000000002 3737.733999999999 599.1986000000002 3759.9562 638.6380000000001S3811.407599999999 708.9082000000002 3849.2453999999993 731.1304000000001C3886.4825999999994 753.3526000000002 3928.324399999999 764.3636000000001 3974.970999999999 764.3636000000001C4020.816799999999 764.3636000000001 4062.6585999999993 753.3526000000002 4100.696599999999 731.1304000000001C4138.734599999999 708.9082000000001 4167.9637999999995 678.0774000000001 4189.9857999999995 638.6380000000001C4212.208 598.3978000000002 4223.218999999999 552.5520000000001 4223.218999999999 501.1006000000002C4223.218999999999 448.8484000000001 4212.208 403.0026000000002 4189.9857999999995 363.5632000000002z M5967.761799999998 960.3594H5711.705999999999L5338.533199999999 116.1160000000001L5191.586399999999 330.3300000000001C5249.244 358.7584000000001 5293.488199999999 396.7964000000001 5325.1197999999995 446.4460000000001C5355.9506 496.2958 5371.766399999999 553.9534000000001 5371.766399999999 620.4198C5371.766399999999 689.0884000000001 5355.149799999999 750.1494 5321.9166 800.5998C5288.683399999999 852.0511999999999 5241.236 891.4906 5180.3751999999995 919.1181999999998C5118.7136 946.7458 5046.841799999998 960.1592 4963.758799999999 960.1592H4543.338799999999V41.0410000000001H4803.398599999999V285.2850000000001H4944.94L5111.706599999999 41.0410000000001H5570.965399999999L5643.637999999999 219.6194000000002H6032.626599999999L6104.498399999999 41.0410000000001H6374.768399999999L5967.761799999998 960.3594zM5068.263199999999 520.9204C5041.436399999999 498.0976000000001 5000.995999999999 486.0856000000001 4947.3423999999995 486.0856000000001H4802.5978V755.5548H4947.3423999999995C5000.995999999999 755.5548 5041.436399999999 743.743 5068.263199999999 719.9192C5095.089999999999 696.2955999999999 5108.503399999999 663.0624 5108.503399999999 620.4198C5109.3042 576.9764 5095.089999999999 543.7432000000001 5068.263199999999 520.9204zM5719.513799999999 411.0106000000001L5838.032199999999 705.1044000000002L5956.5506 411.0106000000002H5719.513799999999z" />
    <glyph glyph-name="line-arrow-109"
      unicode="&#xE007;"
      horiz-adv-x="12123.3112" d=" M12106.894799999998 539.7392L11753.141399999999 893.6928C11731.319599999999 915.3144 11696.284599999999 915.3144 11674.462799999998 893.6928C11652.841199999997 872.0712 11652.841199999997 836.836 11674.462799999998 815.0142000000001L11933.521599999996 555.9554H55.6556H0V444.6442H55.6556H11933.321399999999L11674.262599999998 185.5853999999999C11652.641 163.9637999999999 11652.641 128.7286 11674.262599999998 106.9068C11696.084399999998 85.2851999999999 11731.119399999998 85.2851999999999 11752.9412 106.9068L12106.8948 460.8603999999999C12128.7166 482.8824000000001 12128.7166 518.1176 12106.894799999998 539.7392z" />
    <glyph glyph-name="line-arrow-125"
      unicode="&#xE008;"
      horiz-adv-x="13902.688799999998" d=" M13886.4726 539.7392L13532.518999999998 893.6928C13510.697199999999 915.3144 13475.662199999999 915.3144 13453.840399999997 893.6928C13432.218799999997 872.0712 13432.218799999997 836.836 13453.840399999997 815.0142000000001L13712.899199999998 555.9554H55.6556H0V444.6442H55.6556H13712.8992L13453.8404 185.5853999999999C13432.218799999999 163.9637999999999 13432.218799999999 128.7286 13453.8404 106.9068C13475.662199999999 85.2851999999999 13510.697199999999 85.2851999999999 13532.519 106.9068L13886.472600000001 460.8603999999999C13908.294399999999 482.8824000000001 13908.294399999999 518.1176 13886.4726 539.7392z" />
    <glyph glyph-name="line-arrow-172"
      unicode="&#xE009;"
      horiz-adv-x="19130.3112" d=" M19111.2922 539.7392000000001L18757.338599999995 892.4916000000001C18735.5168 914.1132 18700.4818 914.1132 18678.659999999996 892.4916000000001C18657.038399999998 870.87 18657.038399999998 835.835 18678.659999999996 814.0132000000001L18937.7188 555.7552000000001H55.6556000000004H0V444.8444000000002H55.6556000000004H18937.718800000002L18678.659999999996 186.5864000000002C18657.038399999998 164.9648000000003 18657.038399999998 129.9298000000002 18678.659999999996 108.1080000000001C18700.4818 86.4864000000002 18735.5168 86.4864000000002 18757.3386 108.1080000000001L19111.292200000004 460.8604C19133.113999999998 482.8824000000001 19133.113999999998 518.1176 19111.2922 539.7392000000001z" />
    <glyph glyph-name="line-arrow-26"
      unicode="&#xE00A;"
      horiz-adv-x="2891.6888" d=" M2875.4725999999996 539.7392L2521.519 893.6928C2499.8974 915.3144 2464.6621999999998 915.3144 2442.8404 893.6928C2421.2188 872.0712 2421.2188 836.836 2442.8404 815.0142000000001L2701.8992 555.9554H55.6556H0V444.6442H55.6556H2701.8991999999994L2442.8403999999996 185.5853999999999C2421.2187999999996 163.9637999999999 2421.2187999999996 128.7286 2442.8403999999996 106.9068C2464.461999999999 85.2851999999999 2499.6971999999996 85.2851999999999 2521.5189999999993 106.9068L2875.472599999999 460.8603999999999C2897.2943999999998 482.8824000000001 2897.2943999999998 518.1176 2875.4725999999996 539.7392z" />
    <glyph glyph-name="line-arrow-43"
      unicode="&#xE00B;"
      horiz-adv-x="2891.6888" d=" M1420.8193999999999 500.5000000000001H1470.8694H1420.8193999999999z M2875.4725999999996 547.1466L2521.519 900.9C2499.6971999999996 922.5216 2464.6621999999998 922.5216 2442.8404 900.9S2421.2188 844.0432000000001 2442.8404 822.2214L2701.8992 563.1626000000001H55.6556H0V451.8514H55.6556H2701.8991999999994L2442.8403999999996 192.7926C2421.2187999999996 171.1709999999999 2421.2187999999996 135.9358000000001 2442.8403999999996 114.114S2499.6971999999996 92.4924 2521.5189999999993 114.114L2875.4725999999996 468.4680000000001C2897.2943999999998 490.0896000000001 2897.2943999999998 525.3248000000001 2875.4725999999996 547.1466z" />
    <glyph glyph-name="line-arrow-61"
      unicode="&#xE00C;"
      horiz-adv-x="6784.577799999999" d=" M6768.361599999999 539.7392L6414.407999999999 893.6928C6392.586199999999 915.3144 6357.551199999999 915.3144 6335.729399999999 893.6928C6313.907599999999 872.0712 6313.907599999999 836.836 6335.729399999999 815.0142000000001L6594.788199999999 555.9554H55.6556H0V444.6442H55.6556H6594.7882L6335.7294 185.5853999999999C6313.9076 163.9637999999999 6313.9076 128.7286 6335.7294 106.9068C6357.351000000001 85.2851999999999 6392.5862 85.2851999999999 6414.408 106.9068L6768.3616 460.8603999999999C6789.983199999999 482.8824000000001 6789.983199999999 518.1176 6768.361599999999 539.7392z" />
    <glyph glyph-name="list-arrow"
      unicode="&#xE00D;"
      horiz-adv-x="1572.9714" d=" M1454.8533999999997 952.7518L786.5857999999998 284.4842000000001L118.3182 952.7518L0 834.6338000000001L668.4677999999999 166.3662000000002L786.5857999999998 48.2482000000001L1573.1715999999997 834.6338000000001z" />
    <glyph glyph-name="location"
      unicode="&#xE00E;"
      horiz-adv-x="1000.9999999999999" d=" M500.4999999999999 1001C224.4242 1001 0 776.5758000000001 0 500.5000000000001C0 224.4242000000002 224.4242 1e-13 500.4999999999999 1e-13C776.5757999999998 1e-13 1000.9999999999998 224.4242000000002 1000.9999999999998 500.5000000000001C1000.9999999999998 776.5758000000001 776.5757999999998 1001 500.4999999999999 1001zM500.4999999999999 45.4454000000001C248.8486 45.4454000000001 45.4454 248.8486000000002 45.4454 500.5000000000001C45.4454 752.1514 248.8486 955.5546 500.4999999999999 955.5546C752.1513999999999 955.5546 955.5546 752.1514 955.5546 500.5000000000001C955.5546 248.8486000000002 752.1513999999999 45.4454000000001 500.4999999999999 45.4454000000001z M680.0793999999999 705.3046C678.4777999999999 705.1044 676.8761999999998 704.704 675.4747999999998 704.3036000000001L266.0657999999999 567.7672000000001C257.0568 564.7642000000001 250.8506 556.3558 250.4502 546.9464C250.0497999999999 537.3368 255.8555999999999 528.7282 264.6644 525.1246000000001L449.2487999999999 449.0486000000001L525.3247999999999 264.4642000000001C528.9283999999999 255.6554000000002 537.5369999999999 250.0498000000001 547.1465999999998 250.2500000000001C556.7561999999999 250.6504000000001 564.9643999999998 256.8566000000001 567.9673999999998 265.8656000000001L704.5037999999997 675.2746000000001C706.9061999999998 682.682 705.5047999999998 690.8902 700.6999999999998 696.8962000000001C695.4947999999998 703.1024 687.6869999999999 706.1054 680.0793999999999 705.3046zM543.5429999999999 338.3380000000001L487.2868 475.2748C484.8844 480.8804 480.48 485.485 474.8744 487.6872L337.9376 543.9434L646.0454 647.0464L543.5429999999999 338.3380000000001z" />
    <glyph glyph-name="logo"
      unicode="&#xE00F;"
      horiz-adv-x="1000.9999999999999" d=" M751.7509999999999 762.1614000000001L249.249 762.1614000000001L249.249 637.6370000000001L684.0833999999999 637.6370000000001z M249.249 561.1606H649.6489999999999V436.6362000000002H249.249V561.1606z M0 1001V1e-13H1000.9999999999998V1001H0zM876.4755999999999 124.5244000000001H124.5244V876.4756H876.4755999999999V124.5244000000001z M685.2846 363.3630000000001L249.249 363.3630000000001L249.0488 363.3630000000001L249.0488 238.8386000000002L751.5507999999999 238.8386000000002z" />
    <glyph glyph-name="loop"
      unicode="&#xE010;"
      horiz-adv-x="1572.9714" d=" M1277.6763999999998 52.0520000000001L1017.0159999999998 312.3120000000002C1080.6795999999997 385.3850000000001 1119.3182 480.8804 1119.3182 584.7842C1119.3182 813.6128000000001 931.7307999999998 1001.0000000000002 702.7019999999999 1001.0000000000002S286.0858 813.6128000000001 286.0858 584.7842C286.0858 355.9556000000001 473.6731999999999 168.5684000000002 702.7019999999999 168.5684000000002C805.6047999999998 168.5684000000002 900.2993999999999 206.4062000000001 973.1722 268.8686000000003L1234.0327999999997 8.4084000000003C1240.2389999999998 2.2022000000002 1248.6473999999998 1e-13 1256.8555999999999 1e-13S1273.4722 2.0020000000001 1277.6763999999998 8.4084000000003C1290.2889999999998 20.8208000000001 1290.2889999999998 39.4394000000002 1277.6763999999998 52.0520000000001zM702.7019999999999 231.0308C506.9063999999999 231.0308 348.5482 389.1888 348.5482 584.7842C348.5482 780.3796 506.9064 938.5375999999998 702.7019999999999 938.5375999999998C898.4975999999999 938.5375999999998 1056.8557999999998 780.3796 1056.8557999999998 584.7842C1056.8557999999998 389.1888 898.4975999999998 231.0308 702.7019999999999 231.0308z" />
    <glyph glyph-name="map"
      unicode="&#xE011;"
      horiz-adv-x="767.3666" d=" M422.0216 36.2362000000002L423.423 37.6376000000001L424.8243999999999 39.4394000000001L399.399 58.8588000000001z M767.3666 608.0074C767.3666 813.813 593.593 978.978 383.7833999999999 978.978C173.7736 978.978 0 813.813 0 608.0074C0 526.5260000000001 28.028 449.6492000000001 76.8768 385.9856L76.8768 385.9856L342.5421999999999 39.2392L342.5421999999999 39.2392C351.7514 27.2272 364.9645999999999 21.6216000000001 376.376 20.02C387.7874 18.4184 402.2018 20.02 414.414 29.2292L416.2158 30.6306000000001L417.8174 32.2322L395.1948 54.8548000000001L395.1948 54.8548000000001L417.8174 32.2322L421.8214 36.0359999999999L399.1988 58.6586L424.6241999999999 39.2392L690.2895999999998 385.9856L690.2895999999998 385.9856C739.3385999999999 449.6492000000001 767.3666 526.5260000000001 767.3666 608.0074zM383.7833999999999 70.8708L383.7833999999999 70.8708L383.7833999999999 70.8708L383.7833999999999 70.8708L383.7833999999999 70.8708zM385.7853999999999 72.4724000000001L393.393 78.2782000000001L393.393 78.2782000000001L385.7853999999999 72.4724000000001L385.7853999999999 72.4724000000001zM381.381 69.0690000000001L381.381 69.0690000000001L368.1678 58.8588000000001L367.9676 58.8588000000001L381.381 69.0690000000001zM368.9686 59.6596000000002L381.381 69.0690000000001L381.381 69.0690000000001L368.9686 59.6596000000002zM383.7833999999999 70.6706000000002L383.7833999999999 70.6706000000002L383.7833999999999 70.6706000000002L383.7833999999999 70.6706000000002L383.7833999999999 70.6706000000002zM385.9856 72.2722000000001L393.5932 78.0780000000001C393.5932 78.0780000000001 393.5932 78.0780000000001 393.5932 78.0780000000001L385.9856 72.2722000000001L385.9856 72.2722000000001zM383.7833999999999 91.0910000000001L127.7276 425.0246000000001L102.3022 405.6052000000001L102.9028 406.0056000000001L127.7276 425.0246000000001L127.7276 425.0246000000001C86.8868 478.2778000000001 64.064 541.541 64.064 608.0074000000001C64.064 776.1754000000001 206.8066 914.9140000000002 383.7833999999999 914.9140000000002C560.7601999999999 914.9140000000002 703.5027999999999 776.1754000000001 703.5027999999999 608.0074000000001C703.5027999999999 541.541 680.68 478.0776000000001 639.8391999999999 425.0246000000001L639.8391999999999 425.0246000000001L664.6639999999998 406.0056000000001L665.2645999999999 405.6052000000001L639.8391999999999 425.0246000000001L383.7833999999999 91.0910000000001z M548.1476 641.0404000000001C548.1476 641.0404000000001 548.1476 641.0404000000001 548.1476 641.0404000000001C547.9473999999999 641.0404000000001 547.9473999999999 641.0404000000001 548.1476 641.0404000000001L548.1476 641.0404000000001C535.7352 709.7090000000001 481.8814 759.759 415.8154 773.773L409.2088 742.5418L409.2088 742.9422L415.8154 773.7729999999999L415.6152 773.7729999999999C323.1228000000001 793.1923999999999 236.6364 732.3316 217.6174 642.0414000000001C198.198 549.7492 259.259 463.6632000000001 349.5492 444.4440000000001L349.5492 444.4440000000001C349.5492 444.4440000000001 349.7494 444.4440000000001 349.7494 444.4440000000001C349.7494 444.4440000000001 349.7494 444.4440000000001 349.7494 444.4440000000001L349.7494 444.4440000000001C371.7714 439.6392000000001 393.9936 439.6392000000001 416.0156 444.4440000000001L416.0156 444.4440000000001C505.5049999999999 461.8614 564.7642 550.5500000000001 548.1476 641.0404000000001L548.1476 641.0404000000001zM485.0846 629.4288000000001C495.6952 572.3718000000001 457.6572 517.3168000000001 403.2028 506.9064L409.2088 475.475L409.2088 475.475L403.2028 506.9064L402.8024 506.9064L402.402 506.7062C389.389 503.9034 376.5762000000001 503.9034 363.5632 506.7062L356.5562 475.475L356.5562 475.6752000000001L363.363 506.7062000000001L362.9626000000001 506.7062000000001C304.9046000000001 518.9184 268.4682 572.9724000000001 280.2800000000001 628.4278000000002C292.4922000000001 686.0854000000002 346.5462000000001 722.5218000000001 402.6022000000001 710.9102C445.8454 701.9012 477.8773999999999 670.2696000000001 485.0846 629.4288000000001L485.0846 629.4288000000001L516.3158 635.2346L516.5160000000001 635.2346L485.0846 629.4288000000001z" />
    <glyph glyph-name="noline-arrow"
      unicode="&#xE012;"
      horiz-adv-x="714.9141999999999" d=" M659.6589999999999 552.3518000000001L607.8072 500.5000000000001V500.5000000000001L659.6589999999999 552.3518000000001L607.8072 604.2036L555.9554 656.0554000000001L314.5142 897.2964000000001L262.6624 949.1482L210.8106 1001L159.159 949.1482L211.0108 897.2964000000001L211.0108 897.2964000000001L159.159 949.1482L55.4554 845.4446L107.3072 793.5928L107.3072 793.5928L55.4554 845.4446L3.6036 793.5928L55.4554 741.741L107.3072 689.8892000000001L296.8966 500.2998L107.3072 310.7104000000001L55.4554 258.8586000000002L107.3072 207.0068000000001L107.3072 207.0068000000001L55.4554 258.8586000000002L3.6036 207.4072000000001L55.4554 155.5554000000002L159.159 51.8518000000001L211.0108 103.7036000000002V103.7036000000002L159.159 51.8518000000001L211.0108 2e-13L262.8626 51.8518000000001L314.7144 103.7036000000002L556.1555999999999 345.1448000000001L608.0074 396.9966L659.8591999999999 448.8484L711.7109999999998 500.7001999999999L659.6589999999999 552.3518000000001zM400.4 500.5000000000001L400.4 500.5000000000001L452.2517999999999 552.3518000000001L400.4 500.5000000000001z" />
    <glyph glyph-name="pencil"
      unicode="&#xE013;"
      horiz-adv-x="667.2665999999999" d=" M306.306 1e-13H33.6336C22.6226 1e-13 13.6136 9.0090000000001 13.6136 20.0200000000001V980.98C13.6136 991.991 22.6226 1001 33.6336 1001H306.306C317.317 1001 326.326 991.991 326.326 980.98V20.0200000000001C326.326 9.0090000000001 317.5172 1e-13 306.306 1e-13zM53.6536 40.0400000000001H286.286V960.96H53.6536V40.0400000000001z M169.9698 780.1794C132.7326 780.1794 102.3022 810.4096 102.3022 847.847S132.5324 915.5146 169.9698 915.5146S237.6374 885.2844 237.6374 847.847S207.207 780.1794 169.9698 780.1794zM169.9698 875.2744C154.7546 875.2744 142.5424 862.8620000000001 142.5424 847.847C142.5424 832.6318 154.9548 820.4196 169.9698 820.4196C185.185 820.4196 197.3972 832.832 197.3972 847.847C197.5974 863.0622 185.185 875.2744 169.9698 875.2744z M306.306 687.2866000000001H230.4302C219.4192 687.2866000000001 210.4102 696.2956 210.4102 707.3066000000001S219.4192 727.3266000000001 230.4302 727.3266000000001H306.306C317.317 727.3266000000001 326.326 718.3176000000001 326.326 707.3066000000001S317.5172 687.2866000000001 306.306 687.2866000000001z M306.306 601.0004H255.4552C244.4442 601.0004 235.4352 610.0094 235.4352 621.0204C235.4352 632.0314000000001 244.4442 641.0404000000001 255.4552 641.0404000000001H306.306C317.317 641.0404000000001 326.326 632.0314000000001 326.326 621.0204C326.326 610.0094 317.5172 601.0004 306.306 601.0004z M306.306 514.9144000000001H230.4302C219.4192 514.9144000000001 210.4102 523.9234 210.4102 534.9344000000001S219.4192 554.9544000000001 230.4302 554.9544000000001H306.306C317.317 554.9544000000001 326.326 545.9454000000001 326.326 534.9344000000001S317.5172 514.9144000000001 306.306 514.9144000000001z M306.306 428.8284H255.4552C244.4442 428.8284 235.4352 437.8374 235.4352 448.8484000000001C235.4352 459.8594000000001 244.4442 468.8684000000001 255.4552 468.8684000000001H306.306C317.317 468.8684000000001 326.326 459.8594000000001 326.326 448.8484000000001C326.326 437.6372000000001 317.5172 428.8284 306.306 428.8284z M306.306 342.5422000000001H230.4302C219.4192 342.5422000000001 210.4102 351.5512000000001 210.4102 362.5622000000001C210.4102 373.5732000000002 219.4192 382.5822000000001 230.4302 382.5822000000001H306.306C317.317 382.5822000000001 326.326 373.5732000000002 326.326 362.5622000000001C326.326 351.5512000000001 317.5172 342.5422000000001 306.306 342.5422000000001z M306.306 256.4562000000001H255.4552C244.4442 256.4562000000001 235.4352 265.4652000000001 235.4352 276.4762000000002S244.4442 296.4962000000002 255.4552 296.4962000000002H306.306C317.317 296.4962000000002 326.326 287.4872000000002 326.326 276.4762000000002S317.5172 256.4562000000001 306.306 256.4562000000001z M306.306 170.1700000000001H230.4302C219.4192 170.1700000000001 210.4102 179.1790000000001 210.4102 190.1900000000001C210.4102 201.2010000000001 219.4192 210.21 230.4302 210.21H306.306C317.317 210.21 326.326 201.2010000000001 326.326 190.1900000000001C326.326 179.1790000000001 317.5172 170.1700000000001 306.306 170.1700000000001z M306.306 84.0840000000001H255.4552C244.4442 84.0840000000001 235.4352 93.0930000000001 235.4352 104.104C235.4352 115.1150000000001 244.4442 124.1240000000001 255.4552 124.1240000000001H306.306C317.317 124.1240000000001 326.326 115.1150000000001 326.326 104.104C326.326 93.0930000000001 317.5172 84.0840000000001 306.306 84.0840000000001z M539.7392 1e-13C532.7322 1e-13 526.1256 3.6036000000001 522.5219999999999 9.8098000000001L427.2268 168.5684000000001C423.6232 174.7746000000001 423.423 182.3822 427.0266 188.7886000000001C430.6302 194.9948000000002 437.2368 198.9988000000002 444.444 198.9988000000002H635.0343999999999C642.2416 198.9988000000002 648.8481999999999 195.1950000000002 652.4517999999999 188.7886000000001C656.0553999999998 182.5824000000001 655.8551999999999 174.7746000000001 652.2515999999998 168.5684000000001L556.9563999999998 9.8098000000001C553.3527999999999 3.6036000000001 546.7461999999999 1e-13 539.7392 1e-13zM479.8793999999999 158.7586000000001L539.7391999999999 59.0590000000001L599.5989999999998 158.7586000000001H479.8793999999999z M635.0343999999999 158.7586000000001H444.444C433.433 158.7586000000001 424.424 167.7676000000001 424.424 178.7786000000001V825.825C424.424 836.836 433.433 845.845 444.444 845.845H635.0343999999999C646.0453999999999 845.845 655.0543999999999 836.836 655.0543999999999 825.825V178.7786000000001C655.0543999999999 167.5674 646.0453999999999 158.7586000000001 635.0343999999999 158.7586000000001zM464.4639999999999 198.7986000000001H615.0143999999999V805.8050000000001H464.4639999999999V198.7986000000001z M635.0343999999999 805.8050000000001H444.444C433.433 805.8050000000001 424.424 814.8140000000001 424.424 825.825V929.3284C424.424 968.7678 456.6562 1001 496.2957999999999 1001H583.3827999999999C623.0224 1001 655.0543999999999 968.7678 655.0543999999999 929.3284V825.825C655.0543999999999 814.8140000000001 646.0453999999999 805.8050000000001 635.0343999999999 805.8050000000001zM464.4639999999999 845.845H615.0143999999999V929.3284C615.0143999999999 946.7458 600.8001999999999 960.96 583.3827999999999 960.96H496.2957999999999C478.8783999999999 960.96 464.6641999999999 946.7458 464.6641999999999 929.3284V845.845z" />
    <glyph glyph-name="phone"
      unicode="&#xE014;"
      horiz-adv-x="1041.04" d=" M0 768.5678C13.2132 841.841 73.073 919.5186 132.5324 976.3754V976.3754C177.3772 1007.006 223.0228 1011.6106 269.4692 975.975L404.404 846.846C435.6352 815.6148000000001 436.2358 760.3596 416.416 717.7170000000001C402.6022 698.6980000000001 387.9876 679.6790000000001 373.373 660.4598000000001C364.5642 649.0484000000001 355.9556 637.6370000000001 347.347 626.4258C341.341 604.604 352.1518 581.7812 369.369 560.5600000000001C391.391 531.9314 424.8243999999999 500.2998000000001 455.4549999999999 471.0706000000001C461.0606 465.6652000000001 466.6661999999999 460.46 471.8713999999999 455.455C505.9053999999999 422.8224 548.1476 383.1828000000001 584.7841999999998 357.9576000000001C585.9853999999999 357.1568000000001 586.9863999999999 356.3560000000001 588.3877999999999 355.5552000000002C604.2035999999998 344.5442000000002 628.2275999999998 328.1278000000001 649.2485999999998 335.3350000000001L740.1393999999998 399.5992000000001C783.9831999999998 420.6202000000001 838.2373999999998 422.2218000000002 880.0791999999997 388.9886000000002L1015.6145999999997 258.8586000000002C1048.0469999999996 226.6264000000001 1050.8497999999995 163.5634000000001 1015.6145999999997 129.7296000000001C962.3613999999995 81.4814000000001 874.4735999999997 9.4094000000001 803.2023999999998 2.0020000000001C722.5217999999998 -9.8097999999999 637.8371999999997 27.6276000000001 552.7521999999998 83.6836000000001C467.6671999999998 139.5394000000001 381.3809999999998 216.6164000000002 301.9015999999998 293.0928C141.141 447.6472000000001 2.002 614.614 0 768.5678zM358.9586 803.0022L224.4242 932.7318L224.4242 932.7318C206.6064 940.94 194.194 944.5436 176.3762 931.7308C115.9158 869.869 74.074 813.2124 64.4644 766.5658000000001C67.8678 650.8502000000001 191.7916 485.8854000000001 347.347 336.3360000000002C425.6252 261.0608000000001 509.509 186.7866000000001 588.7882 134.7346000000001C667.6669999999999 82.8828000000002 740.9402 55.2552000000002 793.1924 62.6626000000001C840.84 71.6716000000001 884.884 106.9068000000002 927.5266 140.7406000000001C942.3414 152.5524 956.7558 164.1640000000001 971.1702 174.3742000000001C978.1772 189.5894000000002 979.979 200.8006000000002 970.1692 215.6154000000001L835.2344 345.3450000000002C815.0142 355.3550000000002 796.796 355.7554000000001 774.1734 347.3470000000002C766.3656000000001 341.9416000000002 758.5577999999999 336.3360000000003 750.9502 330.9306000000003C729.7289999999999 315.9156000000003 708.5078 300.9006000000002 687.2865999999999 285.8856000000002C644.8442 258.8586000000003 587.7872 279.8796000000002 547.3467999999999 307.5072000000003C506.5059999999999 335.5352000000003 466.2657999999999 374.3740000000002 433.2327999999999 406.0056000000002C431.0306 408.0076000000003 428.8284 410.2098000000002 426.8263999999999 412.2118000000003C420.0195999999999 418.6182000000003 412.8123999999999 425.4250000000003 405.405 432.4320000000003C376.1758 459.8594000000003 343.1428 490.8904000000003 317.9176 523.5230000000003C287.4872000000001 563.1626000000003 266.266 612.4118000000003 295.8956 662.8622000000003L359.9596 746.9462000000002C366.366 766.5658000000001 370.9706 784.5838 358.9586 803.0022z" />
    <glyph glyph-name="play-ring"
      unicode="&#xE015;"
      horiz-adv-x="972.7717999999999" d=" M576.3757999999999 508.508L431.0306 607.2066000000001C427.427 609.8092000000001 422.8224 609.8092000000001 419.0186 607.2066000000001C415.415 604.8042 413.0126 599.9994 413.0126 594.9944V397.3970000000001C413.0126 392.3920000000001 415.2148 387.7874000000001 419.0186 385.1848C420.8204 383.9836 422.8224 383.3830000000001 425.0246 383.3830000000001C427.0266 383.3830000000001 429.2288 383.9836000000002 431.0306 385.1848L576.3757999999999 483.8834000000001C579.9793999999999 486.4860000000001 582.3817999999999 491.0906000000001 582.3817999999999 496.0956000000001C582.3817999999999 501.3008 580.1795999999999 505.9054 576.3757999999999 508.508z M486.4859999999999 1001C218.218 1001 0 776.5758 0 500.5000000000001C0 224.4242000000002 218.218 1e-13 486.4859999999999 1e-13C754.7539999999999 1e-13 972.9719999999998 224.4242000000002 972.9719999999998 500.5000000000001C972.9719999999998 776.5758 754.7539999999999 1001 486.4859999999999 1001zM486.4859999999999 14.0140000000001C226.0257999999999 14.0140000000001 14.2142 232.2320000000001 14.2142 500.5000000000001C14.2142 768.768 226.0258000000001 986.986 486.486 986.986C746.9462 986.986 958.7578 768.768 958.7578 500.5000000000001C958.7577999999997 232.2320000000001 746.9462 14.0140000000001 486.4859999999999 14.0140000000001z" />
    <glyph glyph-name="ring-arrow"
      unicode="&#xE016;"
      horiz-adv-x="1000.9999999999999" d=" M651.68937834 500.4645445800001H660.4661863800001V491.6877365400001H651.68937834V500.4645445800001z M660.4597999999999 509.3088000000001L651.651 518.1176L642.8421999999999 526.9264000000001L451.451 718.3176000000001L442.6422 727.1264000000001L433.8334 735.9352000000001L425.0246 727.1264000000001L407.407 709.5088000000001L416.2158 700.7L416.2158 700.7L407.407 709.5088000000001L398.398 700.7L407.2068 691.8912L416.0156 683.0824L598.598 500.5000000000001L416.0156 317.9176000000001L407.2068 309.1088000000002L398.398 300.3000000000001L407.2068 291.4912000000002L424.8244 273.8736000000001L433.6332 282.6824000000001L433.6332 282.6824000000001L424.8244 273.8736000000001L433.6332 265.0648000000001L442.442 273.8736000000001L451.2508 282.6824000000001L642.6419999999999 474.0735999999999L651.4507999999998 482.8824L660.2595999999999 491.6911999999999L651.4507999999998 500.4999999999999L660.4597999999999 509.3088000000001zM625.0243999999999 509.3088000000001L616.2156 500.5000000000001L616.2156 500.5000000000001L625.0243999999999 509.3088000000001z M500.4999999999999 1001C224.6244 1001 0 776.3756000000001 0 500.5000000000001C0 224.4242000000002 224.6244 1e-13 500.4999999999999 1e-13C776.5757999999998 1e-13 1000.9999999999998 224.4242000000002 1000.9999999999998 500.5000000000001C1000.9999999999998 776.3756000000001 776.5757999999998 1001 500.4999999999999 1001zM500.4999999999999 25.0250000000001C238.238 25.0250000000001 25.025 238.2380000000001 25.025 500.5000000000001S238.238 975.975 500.4999999999999 975.975S975.975 762.7620000000001 975.975 500.5000000000001S762.762 25.0250000000001 500.4999999999999 25.0250000000001z" />
    <glyph glyph-name="search"
      unicode="&#xE017;"
      horiz-adv-x="1000.9999999999999" d=" M416.6162 168.5684000000001C187.5874 168.5684000000001 0 355.9556000000001 0 584.7842C0 813.6128 187.5874 1001 416.6162 1001S833.2323999999999 813.6128 833.2323999999999 584.7842C833.2323999999999 480.8804 794.5937999999999 385.5852000000001 730.9301999999999 312.3120000000002L991.5905999999998 52.0520000000001C1004.0029999999998 39.6396000000001 1004.0029999999998 20.8208000000001 991.5905999999998 8.4084000000001C987.3863999999998 2.2022000000001 979.1781999999998 1e-13 970.7697999999998 1e-13S954.1531999999999 2.0020000000001 947.9469999999998 8.4084000000001L687.0863999999999 268.8686000000002C614.2135999999999 206.4062000000001 519.7192 168.5684000000001 416.6162 168.5684000000001zM416.6162 938.5376C220.8206 938.5376 62.4624 780.3796 62.4624 584.7842S220.8205999999999 231.0308000000001 416.6162 231.0308000000001C612.4117999999999 231.0308000000001 770.7699999999999 389.1888000000002 770.7699999999999 584.7842S612.4117999999999 938.5376 416.6162 938.5376z" />
    <glyph glyph-name="sort"
      unicode="&#xE018;"
      horiz-adv-x="1000.9999999999999" d=" M0 1001H1000.9999999999998V750.75H0V1001zM250.25 625.625H1000.9999999999998V375.3750000000001H250.25V625.625zM500.4999999999999 250.2500000000001H1000.9999999999998V1e-13H500.4999999999999V250.2500000000001z" />
    <glyph glyph-name="tg"
      unicode="&#xE019;"
      horiz-adv-x="1287.0857999999998" d=" M1200.1989999999998 994.3934L60.06 586.7862C-17.8178 557.7572 -17.2172 517.517 45.8458 499.6992L338.5382 415.0146000000001L1015.6145999999998 811.2104C1047.6465999999998 829.2284 1076.8757999999998 819.6188 1052.8518 799.799L504.3038 340.3400000000001L484.0836 60.4604000000001C513.7132 60.4604000000001 526.7262 73.0730000000001 543.3428 87.8878000000001L685.4848 216.0158L981.1801999999998 13.4134000000001C1035.6346 -14.4143999999999 1074.8737999999998 -0.2001999999999 1088.4874 60.2602000000001L1282.6814 908.7078C1302.5012 982.7818 1252.0507999999998 1016.2152 1200.1989999999998 994.3934z" />
    <glyph glyph-name="vk"
      unicode="&#xE01A;"
      horiz-adv-x="1694.0924" d=" M828.8279999999999 1.4014000000001H930.1292C930.1292 1.4014000000001 960.7598 4.8048000000001 976.3754 22.2222C990.7898 38.2382 990.1892 68.2682 990.1892 68.2682S988.1872 210.8106 1051.2502 231.6314C1113.5124 252.0518 1193.3922 95.2951999999999 1277.8766 35.2352C1341.7404 -10.4104000000001 1390.3890000000001 1.4014 1390.3890000000001 1.4014L1616.615 1.2012C1616.615 1.2012 1734.9332000000002 10.6105999999999 1678.8772000000001 107.1069999999999C1674.2726000000002 114.9147999999998 1646.2446000000002 178.5783999999999 1510.7092 308.9085999999999C1368.9676000000002 445.4449999999998 1387.9866000000002 423.4229999999999 1558.7572 659.6589999999999C1662.8612 803.4025999999998 1704.5028 891.2903999999997 1691.2896000000003 928.9279999999998C1679.0774000000001 964.7637999999998 1603.0014 958.5575999999998 1603.0014 958.5575999999998L1347.7464000000002 958.7577999999997C1347.7464000000002 958.7577999999997 1328.7274000000002 960.7597999999998 1314.7134 951.9509999999998C1301.0998000000002 943.3423999999998 1292.2910000000002 921.3203999999998 1292.2910000000002 921.3203999999998S1252.0508 808.0071999999998 1198.1970000000001 713.3125999999997C1084.8838 513.5129999999998 1039.4384000000002 503.1025999999998 1020.8198000000002 515.3147999999999C977.5766 544.3437999999999 988.3874 631.4307999999999 988.3874 693.4927999999998C988.3874 887.0861999999998 1016.8158 967.7667999999998 933.3324000000002 988.7877999999998C905.7048 995.5945999999998 885.2844000000001 1000.1991999999998 814.4136000000002 1000.9999999999998C723.723 1001.6006 646.646 1000.3994 603.2026 978.3774C574.1736 963.5626 551.7512 930.7298 565.5649999999999 928.928C582.3817999999999 926.5256 620.4197999999999 918.3174 640.6399999999999 889.6888C666.8661999999999 852.852 665.8652 770.1694 665.8652 770.1694S680.8802 542.1416 630.8302 513.9134C596.5959999999999 494.494 549.3488 534.1336 448.2478000000001 715.3145999999999C396.396 808.4076 357.357 912.912 357.357 912.912S349.7493999999999 932.1312 336.336 942.3414C319.9196 954.7538 297.0968 958.7578 297.0968 958.7578L55.2552 958.5576C55.2552 958.5576 18.8188 957.5566 5.6056 941.1402C-6.2062 926.5256 4.6046 896.2954 4.6046 896.2954S194.194 433.0326000000001 408.6082 201.4012000000001C605.4047999999999 -11.2112 828.8279999999999 1.4014000000001 828.8279999999999 1.4014000000001z" />
    <glyph glyph-name="whatsapp"
      unicode="&#xE01B;"
      horiz-adv-x="1000.9999999999999" d=" M2.2022 1e-13L72.4724 257.0568000000001C29.2292 332.3320000000001 6.4064 417.6172000000002 6.4064 505.1046000000001C6.6066 778.5778 229.0288 1001 502.502 1001C635.2346 1001 759.7589999999999 949.3484 853.4526 855.4546C947.1462 761.761 998.5976 637.0364 998.5976 504.5040000000001C998.3973999999998 231.0308 775.7749999999999 8.6086000000001 502.502 8.6086000000001C419.419 8.6086000000001 337.7373999999999 29.4294000000001 265.265 69.0690000000001L2.2022 1e-13zM277.4772 158.7586000000001C347.347 117.3172000000002 414.0136 92.4924000000001 502.3017999999999 92.2922000000001C729.5287999999998 92.2922000000001 914.7137999999998 277.2770000000001 914.7137999999998 504.5040000000001C914.7137999999998 732.3316 730.5297999999999 916.916 502.5019999999999 917.1162C275.0748 917.1162 90.0899999999999 732.1314 90.0899999999999 504.9044000000001C90.0899999999999 412.0116000000001 117.3171999999999 342.5422000000001 162.9627999999999 269.8696000000001L121.3212 117.7176000000002L277.4772 158.7586000000001zM735.3345999999999 397.7974000000001C743.9431999999999 393.5932 749.7489999999999 390.7904000000001 752.3516 386.5862C755.5548 381.381 755.5548 356.5562 745.1443999999999 327.5272C734.7339999999999 298.4982 685.2846 272.0718000000001 661.4607999999998 268.6684C640.0393999999999 265.4652 613.0124 264.2640000000001 583.3827999999999 273.6734C565.3648 279.4792 542.3417999999999 287.0868000000001 512.7121999999998 299.6994000000001C396.7963999999999 349.7494000000001 318.318 462.0616 303.3029999999999 483.6832000000001C302.3019999999999 485.2848000000001 301.5012 486.2858000000001 301.1008 486.8864000000001L300.9006 487.0866000000002C294.294 496.0956000000002 250.4502 554.5540000000001 250.4502 615.0144000000003C250.4502 672.0714000000003 278.4781999999999 701.9012000000002 291.2909999999999 715.7150000000001C292.2919999999999 716.7160000000001 293.0927999999999 717.5168000000001 293.6933999999999 718.3176000000001C305.1047999999999 730.7300000000001 318.5181999999999 733.9332000000002 326.7263999999999 733.9332000000002L350.5501999999999 733.5328000000002C351.3509999999999 733.5328000000002 352.3519999999999 733.5328000000002 353.3529999999999 733.5328000000002C360.5601999999999 733.5328000000002 369.5691999999999 733.5328000000002 378.5781999999999 712.3116000000002C381.7813999999999 704.7040000000002 386.3859999999999 693.4928000000002 391.1907999999999 681.6810000000003C402.2018 655.0544000000002 414.6141999999999 624.6240000000003 416.8164 620.2196000000002C420.0195999999999 614.0134000000003 422.0215999999999 606.8062000000002 417.8173999999999 598.3978000000002C417.2167999999999 597.1966000000002 416.6162 595.9954000000002 416.0155999999999 594.7942000000003C412.8123999999999 588.3878000000002 410.6102 583.7832000000002 405.2047999999999 577.7772000000002C403.2027999999999 575.3748000000003 401.0005999999999 572.7722000000002 398.7984 570.1696000000002C394.5942 564.9644000000002 390.1898 559.7592000000002 386.5862 556.1556000000002C380.38 549.9494000000002 373.9735999999999 543.3428000000001 381.1808 530.9304000000002C388.388 518.5180000000003 413.2128 477.8774000000002 450.0496 445.0446000000002C489.6892 409.8094000000002 523.9233999999999 394.7944000000001 541.5409999999999 387.1868000000003C544.9444 385.7854000000003 547.7472 384.5842000000003 549.7492 383.3830000000003C562.1615999999999 377.1768000000003 569.3688 378.1778000000003 576.5759999999999 386.3860000000003C583.7832 394.5942000000004 607.607 422.6222000000004 615.8152 435.0346000000003C624.0234 447.4470000000004 632.4318 445.4450000000003 643.6429999999999 441.2408000000004C655.0543999999999 437.0366000000004 715.9151999999999 407.2068000000004 728.3276 401.0006000000003C730.9302 399.9996000000001 733.3326 398.7984 735.3345999999999 397.7974000000001z" />
    <glyph glyph-name="youtube"
      unicode="&#xE01C;"
      horiz-adv-x="1084.4834" d=" M542.3417999999999 1e-13C420.0195999999999 1e-13 297.6974 3.2032000000002 221.2209999999999 9.6096000000001C12.4124 27.0270000000002 1.2012 207.4072000000001 0 500.2998000000001C1.2012 793.5928 12.4124 973.973 221.221 991.3904C374.5742 1004.2032 710.5097999999999 1004.2032 863.2623999999998 991.3904L863.2623999999998 991.3904C1071.8708 973.973 1083.2821999999999 793.5928 1084.2831999999999 500.7002000000001C1083.0819999999999 207.4072000000001 1071.8708 27.0270000000002 863.2624 9.6096C786.786 3.2032000000002 664.6639999999999 1e-13 542.3417999999999 1e-13zM542.3417999999999 917.5166C422.0215999999999 917.5166 301.5012 914.5136 228.0278 908.3074C108.9087999999999 898.2974 84.6846 829.829 83.4834 500.2998C84.6846 171.1710000000001 109.1089999999999 102.7026 228.2279999999999 92.6926C375.1747999999999 80.4803999999999 709.9091999999998 80.4803999999999 856.4555999999998 92.6926C975.3743999999998 102.7026 999.7987999999998 171.3712000000001 1000.9999999999998 500.7002C999.7987999999996 829.829 975.3743999999998 898.2973999999999 856.4555999999998 908.3074C782.9821999999999 914.5136 662.8621999999999 917.5166 542.3417999999999 917.5166z M417.0166 291.8916000000002V667.2666L750.7499999999999 480.0796L417.0166 291.8916000000002L417.0166 291.8916000000002z" />
  </font>
</defs>
</svg>
